<svg width="1775" height="1275" viewBox="0 0 1775 1275" fill="none" xmlns="http://www.w3.org/2000/svg">
<path d="M689.5 57.5C948 13.5 1245 -65 1364 106.5L1544 313L1675 487.5L1743.5 639.501C1842 759.501 1688.24 913.709 1571 1007.5C1483.5 1077.5 1439.91 1118.32 1284 1132.32C1128.09 1146.32 1014.63 1052.14 800.664 1132.32C715.227 1164.34 183.604 1299.47 98.5003 1270.5C-42.5001 1222.5 -12.5664 1022.99 71.0003 730.5C81.0002 695.5 142.563 359.565 210 281C277.437 202.435 431 101.5 689.5 57.5Z" fill="url(#paint0_linear_137_5)"/>
<defs>
<linearGradient id="paint0_linear_137_5" x1="1480.17" y1="863.185" x2="1480.17" y2="184" gradientUnits="userSpaceOnUse">
<stop stop-color="#2D6053"/>
<stop offset="1" stop-color="#40AD92" stop-opacity="0.5"/>
</linearGradient>
</defs>
</svg>
